<svg viewBox="0 0 300 900" xmlns="http://www.w3.org/2000/svg" fill="none" stroke="#5f7794" stroke-width="2" stroke-linecap="round" stroke-linejoin="round">

  <path d="M90 40 H210 A10 10 0 0 1 220 50 V820 A50 50 0 0 1 170 870 H130 A50 50 0 0 1 80 820 V50 A10 10 0 0 1 90 40 Z"></path>
  <path d="M80 160 L56 168 L80 182 M220 160 L244 168 L220 182"></path><path d="M120 170 m0 -14 a14 14 0 1 1 -9.799999999999999 4.2 a7.700000000000001 7.700000000000001 0 1 0 5.6000000000000005 -2.8000000000000003"></path><path d="M180 170 m0 -14 a14 14 0 1 1 -9.799999999999999 4.2 a7.700000000000001 7.700000000000001 0 1 0 5.6000000000000005 -2.8000000000000003"></path><path d="M150 160 L138 192 L162 192 Z"></path><path d="M90 226 L98.57 216 L107.14 226 L115.71000000000001 216 L124.28 226 L132.85 216 L141.42000000000002 226 L149.99 216 L158.56 226 L167.13 216 L175.7 226 L184.26999999999998 216 L192.83999999999997 226 L201.40999999999997 216 L209.97999999999996 226 L218.54999999999995 216 L227.11999999999995 226"></path><path d="M80 390 L56 398 L80 412 M220 390 L244 398 L220 412"></path><path d="M120 400 m0 -14 a14 14 0 1 1 -9.799999999999999 4.2 a7.700000000000001 7.700000000000001 0 1 0 5.6000000000000005 -2.8000000000000003"></path><path d="M180 400 m0 -14 a14 14 0 1 1 -9.799999999999999 4.2 a7.700000000000001 7.700000000000001 0 1 0 5.6000000000000005 -2.8000000000000003"></path><path d="M150 390 L138 422 L162 422 Z"></path><path d="M90 456 L98.57 446 L107.14 456 L115.71000000000001 446 L124.28 456 L132.85 446 L141.42000000000002 456 L149.99 446 L158.56 456 L167.13 446 L175.7 456 L184.26999999999998 446 L192.83999999999997 456 L201.40999999999997 446 L209.97999999999996 456 L218.54999999999995 446 L227.11999999999995 456"></path><path d="M80 620 L56 628 L80 642 M220 620 L244 628 L220 642"></path><path d="M120 630 m0 -14 a14 14 0 1 1 -9.799999999999999 4.2 a7.700000000000001 7.700000000000001 0 1 0 5.6000000000000005 -2.8000000000000003"></path><path d="M180 630 m0 -14 a14 14 0 1 1 -9.799999999999999 4.2 a7.700000000000001 7.700000000000001 0 1 0 5.6000000000000005 -2.8000000000000003"></path><path d="M150 620 L138 652 L162 652 Z"></path><path d="M90 686 L98.57 676 L107.14 686 L115.71000000000001 676 L124.28 686 L132.85 676 L141.42000000000002 686 L149.99 676 L158.56 686 L167.13 676 L175.7 686 L184.26999999999998 676 L192.83999999999997 686 L201.40999999999997 676 L209.97999999999996 686 L218.54999999999995 676 L227.11999999999995 686"></path>
  <path d="M90 760 L98.57 750 L107.14 760 L115.71000000000001 750 L124.28 760 L132.85 750 L141.42000000000002 760 L149.99 750 L158.56 760 L167.13 750 L175.7 760 L184.26999999999998 750 L192.83999999999997 760 L201.40999999999997 750 L209.97999999999996 760 L218.54999999999995 750 L227.11999999999995 760"></path>
  <path d="M110 40 V16 M150 40 V8 M190 40 V16"></path>

</svg>